<svg xmlns="http://www.w3.org/2000/svg">

    <!-- width="120" height="16" viewBox="0 0 120 16" -->
    <symbol id="logo">
        <path d="M16.0841 0.994374C14.4889 1.20837 14.0984 1.42236 13.2247 3.55569C12.5827 5.11948 9.29303 13.0602 8.12478 16.0001H7.34044C5.9339 12.1845 3.88534 6.63717 2.52514 3.1277C1.86324 1.37297 1.45286 1.13594 0 0.994374V0.335938H6.05305V0.994374C4.28909 1.18532 4.19312 1.46844 4.52737 2.34746C5.12308 4.07585 6.86387 8.79355 8.36307 12.731C9.62729 9.67256 11.1993 5.81742 12.3344 2.82153C12.8573 1.4454 12.5727 1.23141 10.6168 0.994374V0.335938H16.0973L16.0841 0.994374Z" fill="currentColor"/>
        <path d="M26.2273 15.74V15.0816C28.1799 14.8709 28.3718 14.7754 28.3718 12.7771V3.3417C28.3718 1.30384 28.1799 1.20837 26.2273 0.994374V0.335938H32.6146V0.994374C30.6289 1.20837 30.4436 1.30384 30.4436 3.3417V12.754C30.4436 14.7919 30.6355 14.8643 32.6146 15.0586V15.717L26.2273 15.74Z" fill="currentColor"/>
        <path d="M56.8763 15.9309C56.5686 15.9309 56.3038 15.9045 55.996 15.8815C54.2552 15.763 53.3253 15.3119 52.2762 13.8436C51.3958 12.6354 50.5387 11.1407 49.7742 9.93252C49.2976 9.17202 48.9899 9.03046 47.7885 9.03046H46.9512V12.7539C46.9512 14.7687 47.216 14.8873 49.1222 15.0584V15.7169H42.7449V15.0584C44.7306 14.8477 44.8894 14.7523 44.8894 12.7539V3.29548C44.8894 1.28067 44.628 1.20824 42.7449 0.990956V0.33252H48.8211C50.5619 0.33252 51.7301 0.546515 52.6336 1.13911C53.1546 1.47522 53.5784 1.94092 53.8628 2.49008C54.1473 3.03924 54.2825 3.65279 54.2552 4.26996C54.2552 6.30782 52.9314 7.58848 51.1807 8.34569C51.611 9.08313 52.6336 10.67 53.3517 11.7366C53.9198 12.5939 54.5479 13.4102 55.2315 14.1794C55.6859 14.7115 56.2935 15.0919 56.9723 15.2691L56.8763 15.9309ZM48.0831 8.214C49.3241 8.214 50.1085 8.02635 50.7042 7.52923C51.6341 6.84117 52.028 5.88314 52.028 4.61235C52.028 2.07408 50.3368 1.15227 48.5034 1.15227C47.8117 1.15227 47.4046 1.24445 47.2391 1.38931C47.024 1.55392 46.9512 1.79095 46.9512 2.40659V8.214H48.0831Z" fill="currentColor"/>
        <path d="M84.0204 0.994374C82.498 1.16227 81.995 1.3993 81.9255 2.48902C81.899 3.24622 81.8527 4.24375 81.8527 6.43963V15.9475H80.9459L70.7493 3.55569V9.48162C70.7493 11.615 70.8188 12.6816 70.8685 13.3697C70.9148 14.5779 71.5105 14.9335 73.2248 15.075V15.7335H67.4366V15.075C68.9126 14.9565 69.4851 14.601 69.5811 13.4289C69.6506 12.6684 69.7002 11.6018 69.7002 9.4454V3.41413C69.7002 2.75569 69.6506 2.3705 69.2237 1.84705C68.7703 1.25445 68.2705 1.11289 67.1023 0.994374V0.335938H70.6765L80.7804 12.2602V6.44623C80.7804 4.24376 80.7341 3.22318 80.6612 2.51206C80.5884 1.4454 80.0424 1.11289 78.1361 0.994374V0.335938H84.0204V0.994374Z" fill="currentColor"/>
        <path d="M103.993 15.7399V15.0815C105.541 14.8939 105.73 14.6568 105.399 13.7646C105.068 12.8725 104.611 11.6544 104.112 10.163H98.9621C98.5815 11.2297 98.2241 12.1383 97.8899 13.126C97.367 14.6667 97.7012 14.8544 99.6538 15.1013V15.7597H94.1501V15.1013C95.6526 14.9136 96.0332 14.7457 96.8672 12.6124L101.798 0.167929L102.563 0.0263672C104.062 4.07904 105.707 8.5597 107.196 12.6618C107.957 14.7227 108.172 14.9136 109.864 15.1013V15.7597L103.993 15.7399ZM101.61 3.10456C100.845 5.14242 100.034 7.2988 99.3195 9.17205H103.777L101.61 3.10456Z" fill="currentColor"/>
    </symbol>

    <!-- width="45" height="14" viewBox="0 0 45 14" -->
    <symbol id="bonum">
        <path fill-rule="evenodd" clip-rule="evenodd" d="M8.37906 3C6.40958 3 4.96765 4.46533 4.96765 6.5C4.96765 7.29333 5.18746 7.99333 5.57432 8.56267H0.677007C0.298938 8.56267 0 8.88933 0 9.28133V10H8.37906H8.38785C10.3573 10 11.7905 8.53467 11.7905 6.5C11.7817 4.46533 10.3573 3 8.37906 3ZM8.37027 8.77733C7.1921 8.77733 6.33045 7.83467 6.33045 6.5C6.33045 5.184 7.18331 4.22267 8.37027 4.22267C9.56602 4.22267 10.4189 5.184 10.4189 6.5C10.4189 7.83467 9.56602 8.77733 8.37027 8.77733ZM19.8621 6.5C19.8621 8.53467 18.4378 10 16.4595 10C14.49 10 13.048 8.53467 13.048 6.5C13.048 4.46533 14.49 3 16.4595 3C18.429 3 19.8621 4.46533 19.8621 6.5ZM14.4109 6.5C14.4109 7.83467 15.2637 8.77733 16.4507 8.77733C17.6464 8.77733 18.4993 7.83467 18.4993 6.5C18.4993 5.184 17.6464 4.22267 16.4507 4.22267C15.2637 4.22267 14.4109 5.184 14.4109 6.5ZM27.0634 5.97733V9.28133H27.037V10H26.36C25.9908 10 25.683 9.68267 25.683 9.28133V5.97733C25.683 4.89467 25.05 4.18533 24.074 4.18533C23.0981 4.18533 22.465 4.904 22.465 5.97733V10H21.788C21.4187 10 21.111 9.68267 21.111 9.28133V5.97733C21.111 4.204 22.3155 3 24.074 3C25.8501 3 27.0634 4.204 27.0634 5.97733ZM34.264 3.57867V3H33.5958C33.2177 3 32.9188 3.32667 32.9188 3.71867V7.032C32.9188 8.10533 32.2682 8.80533 31.2922 8.80533C30.3163 8.80533 29.6832 8.10533 29.6832 7.032V6.21067V3.85867V3.57867V3H29.015C28.6369 3 28.338 3.31733 28.338 3.71867V7.04133C28.338 8.80533 29.5425 10 31.3098 10C33.0683 10 34.2728 8.796 34.2728 7.04133V5.352V3.85867L34.264 3.57867ZM40.2695 4.29733C40.6652 3.48533 41.4741 3 42.5028 3C44.0151 3 45.0086 4.07333 44.9998 5.70667V10H44.3228C43.9535 10 43.6458 9.68267 43.6458 9.28133V5.66933C43.6458 4.764 43.1183 4.148 42.3006 4.148C41.4829 4.148 40.9378 4.764 40.9378 5.66933V8.11467V9.14133V9.42133V9.89733V10H40.2695C39.9003 10 39.5925 9.68267 39.5925 9.28133V5.66933C39.5925 4.764 39.0474 4.148 38.2297 4.148C37.412 4.148 36.8845 4.764 36.8845 5.66933V9.272V9.99067H36.2075C35.8382 9.99067 35.5305 9.67333 35.5305 9.272V5.70667C35.5305 4.07333 36.5152 3 38.0363 3C39.065 3 39.8739 3.48533 40.2695 4.29733Z" fill="currentColor"/>
    </symbol>

    <!-- width="20" height="20" viewBox="0 0 20 20" -->
    <symbol id="cart" fill="none">
        <path d="M5 6.07861L16 6.07861L17 18.0002L4 18.0002L5 6.07861Z" stroke="currentColor"/>
        <path d="M13.6767 7.96078L13.6767 5.07895C13.6767 3.37849 12.2982 2 10.5977 2V2C8.89729 2 7.5188 3.37849 7.5188 5.07895L7.5188 7.96078" stroke="currentColor" stroke-linecap="round" stroke-linejoin="round"/>
    </symbol>

    <!-- width="20" height="20" viewBox="0 0 20 20" -->
    <symbol id="like">
        <path fill="none" fill-rule="evenodd" clip-rule="evenodd" d="M16.8619 4.15927C16.1324 3.4031 15.1808 3 14.1723 3C13.1636 3 12.2119 3.40304 11.482 4.1592L10 5.69555L8.51812 4.1593C7.78862 3.40324 6.83656 3 5.82806 3C4.81953 3 3.86746 3.4032 3.13809 4.15925C1.62054 5.73231 1.6208 8.31559 3.1379 9.88757L10 17L16.862 9.88772C18.3791 8.31575 18.3796 5.73232 16.8619 4.15927Z" stroke="currentColor"/>
        <!-- <line x1="10" y1="16.5" x2="39" y2="16.5" stroke="black"/> -->
    </symbol>

    <!-- width="20" height="20" viewBox="0 0 20 20" -->
    <symbol id="camera" fill="none">
        <rect x="2" y="2" width="16" height="16" rx="5" stroke="currentColor"/>
        <rect x="6.44434" y="6.44434" width="7" height="7" rx="3.5" stroke="currentColor"/>
        <rect x="13.5557" y="4.6665" width="1" height="1" rx="0.5" stroke="currentColor"/>
    </symbol>


    <!-- width="20" height="20" viewBox="0 0 20 20" -->
    <symbol id="menu">
        <rect x="1" y="3" width="18" height="1" fill="currentColor"/>
        <rect x="1" y="9" width="18" height="1" fill="currentColor"/>
        <rect x="1" y="15" width="18" height="1" fill="currentColor"/> 
    </symbol>

</svg>