<?xml version="1.0" standalone="no"?>
<!DOCTYPE svg PUBLIC "-//W3C//DTD SVG 20010904//EN"
 "http://www.w3.org/TR/2001/REC-SVG-20010904/DTD/svg10.dtd">
<svg version="1.0" xmlns="http://www.w3.org/2000/svg"
 width="544.000000pt" height="544.000000pt" viewBox="0 0 544.000000 544.000000"
 preserveAspectRatio="xMidYMid meet">
<metadata>
Created by potrace 1.14, written by Peter Selinger 2001-2017
</metadata>
<g transform="translate(0.000000,544.000000) scale(0.100000,-0.100000)"
fill="#000000" stroke="none">
<path d="M32 5172 l-32 -3 0 -105 c0 -92 2 -104 18 -105 9 0 26 -2 37 -4 11
-2 45 -6 75 -10 30 -4 62 -8 70 -10 8 -2 30 -6 48 -9 148 -28 285 -118 366
-241 30 -44 118 -208 122 -225 0 -3 5 -16 11 -30 6 -14 24 -59 40 -100 17 -41
34 -84 38 -95 5 -11 9 -22 10 -25 4 -11 17 -46 25 -65 4 -11 22 -58 40 -105
35 -94 42 -112 60 -155 6 -16 45 -118 85 -225 41 -107 79 -208 86 -225 7 -16
13 -33 14 -37 2 -5 4 -10 5 -13 1 -3 3 -8 5 -12 1 -5 5 -15 8 -23 12 -27 418
-1114 434 -1160 8 -25 19 -49 24 -54 5 -6 9 -18 9 -28 0 -10 4 -26 10 -36 5
-9 48 -123 95 -252 47 -129 92 -251 100 -270 8 -19 37 -98 65 -175 28 -77 55
-149 60 -160 5 -11 31 -83 59 -160 28 -77 60 -165 71 -195 12 -30 23 -59 24
-65 1 -5 8 -21 14 -35 12 -28 81 -216 119 -325 13 -38 28 -79 33 -90 5 -11 23
-56 39 -100 l29 -80 127 0 127 0 19 50 c11 28 24 59 29 70 5 11 28 67 50 125
38 96 56 140 80 195 5 11 23 56 40 100 17 44 35 89 40 100 8 17 30 70 35 85 1
3 7 19 14 35 7 17 19 46 26 66 11 31 39 96 65 154 5 11 28 67 51 125 22 58 47
119 54 135 8 17 34 82 60 145 25 63 53 131 62 150 9 19 16 41 16 48 0 6 4 12
9 12 4 0 8 7 8 15 0 8 9 34 19 58 11 23 41 94 66 157 26 63 56 134 66 157 10
23 19 44 19 48 0 3 29 74 64 158 36 84 66 159 68 167 2 8 5 17 8 20 9 8 50
114 50 128 0 6 5 12 12 12 6 0 9 3 6 6 -3 3 9 40 27 82 45 107 146 350 150
362 1 3 6 16 12 30 6 14 25 61 43 105 18 44 50 121 70 170 21 50 59 142 85
205 26 63 53 129 60 145 47 109 95 232 95 243 0 6 5 12 10 12 6 0 10 7 10 15
0 8 9 34 19 58 42 92 61 140 61 153 0 8 5 14 10 14 6 0 10 7 10 15 0 8 9 30
20 50 11 19 20 37 20 40 0 15 89 180 131 243 55 81 112 141 179 189 46 33 147
78 194 87 14 2 30 7 35 10 5 3 26 8 47 11 22 3 45 8 52 11 8 2 37 7 64 10 108
13 103 7 106 122 3 100 2 102 -20 103 -154 3 -1721 -1 -1725 -5 -3 -3 -6 -51
-7 -106 -1 -93 0 -100 19 -101 11 0 31 -2 45 -4 14 -3 61 -10 105 -16 178 -25
312 -65 374 -109 97 -70 104 -177 27 -397 -26 -73 -54 -149 -63 -170 -9 -21
-17 -42 -19 -48 -1 -8 -32 -89 -109 -285 -13 -33 -26 -69 -30 -80 -1 -3 -5
-14 -10 -25 -45 -108 -95 -240 -95 -251 0 -8 -4 -14 -10 -14 -5 0 -9 -3 -8 -7
3 -9 -81 -227 -118 -311 -13 -29 -24 -59 -24 -67 0 -7 -4 -16 -9 -19 -5 -3
-12 -18 -16 -33 -3 -16 -13 -41 -20 -58 -8 -16 -46 -111 -86 -210 -39 -99 -80
-199 -90 -222 -11 -23 -19 -46 -19 -51 0 -5 -6 -22 -14 -38 -8 -16 -65 -153
-126 -304 -61 -151 -118 -288 -126 -304 -8 -16 -14 -33 -14 -37 0 -5 -11 -33
-25 -63 -14 -30 -25 -57 -25 -59 0 -3 -8 -22 -17 -43 -9 -22 -17 -41 -18 -44
-1 -3 -7 -18 -13 -33 -7 -16 -12 -30 -12 -32 0 -3 -11 -28 -24 -57 -13 -29
-47 -111 -76 -183 -29 -71 -57 -140 -64 -152 -12 -24 -8 -32 -168 392 -17 44
-34 89 -39 100 -5 11 -10 27 -11 35 -2 8 -5 17 -8 20 -3 3 -16 37 -29 75 -14
39 -31 86 -40 105 -8 19 -16 38 -17 43 -1 4 -3 9 -4 12 -1 3 -3 8 -5 13 -1 4
-5 14 -8 22 -4 8 -20 53 -37 100 -17 47 -34 94 -40 105 -5 11 -23 61 -41 110
-17 50 -35 94 -40 100 -5 5 -9 17 -9 26 0 9 -8 34 -17 55 -9 22 -17 41 -18 44
-1 3 -5 12 -8 20 -3 8 -15 40 -26 70 -21 59 -56 155 -116 315 -73 196 -174
473 -235 640 -34 94 -65 179 -70 190 -5 11 -23 61 -40 110 -17 50 -38 108 -47
130 -8 22 -21 60 -29 85 -8 25 -19 54 -23 65 -12 26 -64 174 -90 250 -11 33
-29 86 -41 118 -59 167 -26 252 120 306 55 20 165 45 250 56 87 11 105 14 121
14 13 1 15 17 15 106 l0 105 -30 0 c-159 3 -1849 4 -1874 2z"/>
</g>
</svg>
